<svg width="32" height="36" viewBox="0 0 32 36" fill="none" xmlns="http://www.w3.org/2000/svg">
<path opacity="0.5" d="M0 14.2222C0 7.51822 -2.11928e-07 4.16533 2.08356 2.08356C4.16711 0.00177765 7.51822 0 14.2222 0H17.7778C24.4818 0 27.8347 -2.11928e-07 29.9164 2.08356C31.9982 4.16711 32 7.51822 32 14.2222V21.3333C32 28.0373 32 31.3902 29.9164 33.472C27.8329 35.5538 24.4818 35.5556 17.7778 35.5556H14.2222C7.51822 35.5556 4.16533 35.5556 2.08356 33.472C0.00177765 31.3884 0 28.0373 0 21.3333V14.2222Z" fill="#7A6BF4"/>
<path fill-rule="evenodd" clip-rule="evenodd" d="M7.55566 14.2222C7.55566 13.8686 7.69614 13.5295 7.94619 13.2794C8.19624 13.0294 8.53538 12.8889 8.889 12.8889H23.1112C23.4648 12.8889 23.804 13.0294 24.054 13.2794C24.3041 13.5295 24.4446 13.8686 24.4446 14.2222C24.4446 14.5759 24.3041 14.915 24.054 15.1651C23.804 15.4151 23.4648 15.5556 23.1112 15.5556H8.889C8.53538 15.5556 8.19624 15.4151 7.94619 15.1651C7.69614 14.915 7.55566 14.5759 7.55566 14.2222ZM7.55566 21.3334C7.55566 20.9797 7.69614 20.6406 7.94619 20.3906C8.19624 20.1405 8.53538 20 8.889 20H17.7779C18.1315 20 18.4706 20.1405 18.7207 20.3906C18.9707 20.6406 19.1112 20.9797 19.1112 21.3334C19.1112 21.687 18.9707 22.0261 18.7207 22.2762C18.4706 22.5262 18.1315 22.6667 17.7779 22.6667H8.889C8.53538 22.6667 8.19624 22.5262 7.94619 22.2762C7.69614 22.0261 7.55566 21.687 7.55566 21.3334Z" fill="#7A6BF4"/>
</svg>
