<svg width="29" height="21" viewBox="0 0 29 21" fill="none" xmlns="http://www.w3.org/2000/svg">
<path d="M26.43 9.55625C26.81 10.0888 27 10.3563 27 10.75C27 11.145 26.81 11.4112 26.43 11.9437C24.7225 14.3387 20.3613 19.5 14.5 19.5C8.6375 19.5 4.2775 14.3375 2.57 11.9437C2.19 11.4112 2 11.1437 2 10.75C2 10.355 2.19 10.0888 2.57 9.55625C4.2775 7.16125 8.63875 2 14.5 2C20.3625 2 24.7225 7.1625 26.43 9.55625Z" stroke="#7A6BF4" stroke-width="3" stroke-linecap="round" stroke-linejoin="round"/>
<path d="M18.25 10.75C18.25 9.75544 17.8549 8.80161 17.1517 8.09835C16.4484 7.39509 15.4946 7 14.5 7C13.5054 7 12.5516 7.39509 11.8483 8.09835C11.1451 8.80161 10.75 9.75544 10.75 10.75C10.75 11.7446 11.1451 12.6984 11.8483 13.4017C12.5516 14.1049 13.5054 14.5 14.5 14.5C15.4946 14.5 16.4484 14.1049 17.1517 13.4017C17.8549 12.6984 18.25 11.7446 18.25 10.75Z" stroke="#7A6BF4" stroke-width="3" stroke-linecap="round" stroke-linejoin="round"/>
</svg>
