<svg width="23" height="23" viewBox="0 0 23 23" fill="none" xmlns="http://www.w3.org/2000/svg">
<path d="M12.716 3.51596C13.0035 3.2285 13.3935 3.06702 13.8001 3.06702C14.2066 3.06702 14.5966 3.2285 14.8841 3.51596L21.7841 10.416C22.0716 10.7035 22.2331 11.0934 22.2331 11.5C22.2331 11.9066 22.0716 12.2965 21.7841 12.5841L14.8841 19.4841C14.5949 19.7634 14.2076 19.9179 13.8056 19.9145C13.4035 19.911 13.019 19.7497 12.7347 19.4654C12.4504 19.1811 12.2891 18.7965 12.2856 18.3945C12.2821 17.9925 12.4367 17.6051 12.716 17.316L16.8667 13.0334H2.30006C1.89339 13.0334 1.50338 12.8718 1.21583 12.5843C0.928271 12.2967 0.766724 11.9067 0.766724 11.5C0.766724 11.0934 0.928271 10.7033 1.21583 10.4158C1.50338 10.1282 1.89339 9.96669 2.30006 9.96669H16.8667L12.716 5.68409C12.4285 5.39655 12.2671 5.00661 12.2671 4.60002C12.2671 4.19344 12.4285 3.8035 12.716 3.51596Z" fill="black"/>
</svg>
