<svg width="50" height="50" viewBox="0 0 50 50" fill="none" xmlns="http://www.w3.org/2000/svg">
<g clip-path="url(#clip0_75_10)">
<path d="M25 26.6667C24.558 26.6667 24.1341 26.8423 23.8215 27.1548C23.5089 27.4674 23.3333 27.8913 23.3333 28.3334C23.3333 28.7754 23.5089 29.1993 23.8215 29.5119C24.1341 29.8244 24.558 30 25 30C25.442 30 25.866 29.8244 26.1785 29.5119C26.4911 29.1993 26.6667 28.7754 26.6667 28.3334C26.6667 27.8913 26.4911 27.4674 26.1785 27.1548C25.866 26.8423 25.442 26.6667 25 26.6667Z" fill="#7A6BF4"/>
<path fill-rule="evenodd" clip-rule="evenodd" d="M40 20.6367L26.6667 13.97V10H36.6667V0H23.3333V13.97L10 20.6367V26.6667H3.33333V46.6667H0V50H20V36.6667H30V50H50V46.6667H46.6667V26.6667H40V20.6367ZM43.3333 46.6667V30H40V46.6667H43.3333ZM10 46.6667H6.66667V30H10V46.6667ZM20 28.3333C20 27.0072 20.5268 25.7355 21.4645 24.7978C22.4021 23.8601 23.6739 23.3333 25 23.3333C26.3261 23.3333 27.5979 23.8601 28.5355 24.7978C29.4732 25.7355 30 27.0072 30 28.3333C30 29.6594 29.4732 30.9312 28.5355 31.8689C27.5979 32.8065 26.3261 33.3333 25 33.3333C23.6739 33.3333 22.4021 32.8065 21.4645 31.8689C20.5268 30.9312 20 29.6594 20 28.3333Z" fill="#7A6BF4"/>
<path d="M26.6667 50V40H23.3333V50H26.6667Z" fill="#7A6BF4"/>
</g>
<defs>
<clipPath id="clip0_75_10">
<rect width="50" height="50" fill="white"/>
</clipPath>
</defs>
</svg>
