<svg width="39" height="18" viewBox="0 0 39 18" fill="none" xmlns="http://www.w3.org/2000/svg">
<path d="M8.86451 3.59916C7.4539 3.59916 6.10107 4.16795 5.10362 5.18041C4.10617 6.19287 3.5458 7.56606 3.5458 8.99789C3.5458 10.4297 4.10617 11.8029 5.10362 12.8154C6.10107 13.8278 7.4539 14.3966 8.86451 14.3966C10.2751 14.3966 11.628 13.8278 12.6254 12.8154C13.6229 11.8029 14.1832 10.4297 14.1832 8.99789C14.1832 7.56606 13.6229 6.19287 12.6254 5.18041C11.628 4.16795 10.2751 3.59916 8.86451 3.59916ZM0 8.99789C0.00017633 7.28955 0.479467 5.61656 1.38184 4.17452C2.2842 2.73248 3.57236 1.58099 5.09569 0.854672C6.61902 0.128356 8.31458 -0.142767 9.98412 0.0729999C11.6537 0.288767 13.2282 0.982509 14.5236 2.07311C15.8503 0.745049 17.6386 0.00033946 19.5019 0C21.4433 0 23.2002 0.791815 24.4802 2.07311C26.1706 0.651675 28.3204 -0.0826224 30.5134 0.0123773C32.7065 0.107377 34.7868 1.02492 36.3517 2.58737C37.9166 4.14982 38.8547 6.24604 38.9845 8.47024C39.1142 10.6944 38.4264 12.8884 37.0541 14.6274C35.6818 16.3663 33.7226 17.5267 31.5559 17.8837C29.3893 18.2407 27.1691 17.7691 25.3253 16.5601C23.4815 15.351 22.1452 13.4906 21.5752 11.339C21.0051 9.18736 21.2417 6.89755 22.2393 4.91285C21.9069 4.50234 21.489 4.17164 21.0157 3.9445C20.5424 3.71737 20.0254 3.59943 19.5019 3.59916C18.4027 3.59916 17.4152 4.10844 16.7646 4.91285C17.3723 6.12485 17.7015 7.46093 17.7274 8.82064C17.7532 10.1804 17.4751 11.5283 16.9139 12.7633C16.3527 13.9982 15.5231 15.0879 14.4873 15.9505C13.4515 16.8132 12.2365 17.4262 10.9337 17.7437C9.63094 18.0612 8.27419 18.0747 6.96549 17.7834C5.65678 17.492 4.43017 16.9034 3.37784 16.0616C2.32551 15.2199 1.47485 14.1469 0.889795 12.9235C0.304743 11.7 0.000521946 10.3579 0 8.99789ZM30.1393 3.59916C29.4406 3.59821 28.7486 3.73721 28.1029 4.00818C27.4571 4.27916 26.8704 4.67679 26.3764 5.1783C25.8823 5.6798 25.4906 6.27533 25.2236 6.93076C24.9566 7.5862 24.8197 8.28865 24.8206 8.99789C24.8206 10.0657 25.1326 11.1094 25.717 11.9973C26.3014 12.8851 27.1321 13.5771 28.104 13.9857C29.0758 14.3943 30.1452 14.5012 31.177 14.2929C32.2087 14.0846 33.1564 13.5704 33.9002 12.8154C34.6441 12.0603 35.1506 11.0984 35.3559 10.0511C35.5611 9.00388 35.4557 7.91837 35.0532 6.93188C34.6506 5.94539 33.9689 5.10223 33.0943 4.50901C32.2196 3.91579 31.1913 3.59916 30.1393 3.59916Z" fill="#7A6BF4"/>
</svg>
